# xmcd
# 
# Track frame offsets:
#     150
#     7388
#     23218
#     42973
#     60916
#     76618
#     90343
#     109320
#     129223
#     146776
#     161379
#     176188
#     189449
#     208227
#     225827
#     245419
#     262877
#     286429
#     302723
# 
# Disc length: 4202
# 
# Revision: 1
# Processed by: cddbd v1.5.2PL0 Copyright (c) Steve Scherf et al.
# Submitted via: fre:ac v1.0.27
# 
DISCID=f7106813
DTITLE=Jane Austen - Mansfield Park
DYEAR=1984
DGENRE=Audiobook
TTITLE0=Mansfield Park - Disc 1 - Track 01
TTITLE1=Mansfield Park - Disc 1 - Track 02
TTITLE2=Mansfield Park - Disc 1 - Track 03
TTITLE3=Mansfield Park - Disc 1 - Track 04
TTITLE4=Mansfield Park - Disc 1 - Track 05
TTITLE5=Mansfield Park - Disc 1 - Track 06
TTITLE6=Mansfield Park - Disc 1 - Track 07
TTITLE7=Mansfield Park - Disc 1 - Track 08
TTITLE8=Mansfield Park - Disc 1 - Track 09
TTITLE9=Mansfield Park - Disc 1 - Track 10
TTITLE10=Mansfield Park - Disc 1 - Track 11
TTITLE11=Mansfield Park - Disc 1 - Track 12
TTITLE12=Mansfield Park - Disc 1 - Track 13
TTITLE13=Mansfield Park - Disc 1 - Track 14
TTITLE14=Mansfield Park - Disc 1 - Track 15
TTITLE15=Mansfield Park - Disc 1 - Track 16
TTITLE16=Mansfield Park - Disc 1 - Track 17
TTITLE17=Mansfield Park - Disc 1 - Track 18
TTITLE18=Mansfield Park - Disc 1 - Track 19
EXTD=Audiobook
EXTT0=
EXTT1=
EXTT2=
EXTT3=
EXTT4=
EXTT5=
EXTT6=
EXTT7=
EXTT8=
EXTT9=
EXTT10=
EXTT11=
EXTT12=
EXTT13=
EXTT14=
EXTT15=
EXTT16=
EXTT17=
EXTT18=
PLAYORDER=
